#!OML:ASF I:\salsa\salsa 7_09\Patient 1\Session 1\dancermale.ASF
:FULLY-SPECIFIED
:DEGREES
898
root -2.03787 16.4056 -7.54476 188.476 138.064 536.246
lowerback -1.92552 1.42813 2.36017
upperback -1.375 1.87639 0.0907389
thorax -0.257533 0.926542 -1.19654
lowerneck -8.41509 4.64274 4.88999
upperneck 23.9797 8.1653 -8.91367
head 9.49581 3.46897 -3.00163
rclavicle 5.36967e-014 1.39149e-015
rhumerus -33.0726 29.3098 -109.401
rradius 108.283
rwrist 12.5822
rhand -66.8168 -4.84557
rfingers 7.12502
rthumb -38.6141 -30.4751
lclavicle 5.36967e-014 1.39149e-015
lhumerus 5.75609 -5.41613 68.6364
lradius 43.3028
lwrist 12.2624
lhand -22.021 45.6978
lfingers 7.12502
lthumb 4.38847 435.632
rfemur -9.11061 -5.22551 25.8288
rtibia 41.8688
rfoot -27.0181 -18.453
rtoes -22.844
lfemur -46.949 5.34233 -11.6571
ltibia 49.873
lfoot -17.4634 6.67876
ltoes -11.0832
899
root -2.04456 16.3915 -7.51971 187.905 136.767 535.848
lowerback -1.9921 1.85713 2.63159
upperback -1.33584 2.44236 0.216993
thorax -0.153155 1.21027 -1.20433
lowerneck -8.62772 4.13359 4.46571
upperneck 24.1361 7.42059 -8.43448
head 9.49413 3.12964 -2.84548
rclavicle 4.92737e-014 1.22253e-014
rhumerus -31.7726 27.7288 -107.898
rradius 108.132
rwrist 11.4512
rhand -65.7714 -4.06567
rfingers 7.12502
rthumb -37.627 -29.9654
lclavicle 4.92737e-014 1.22253e-014
lhumerus 3.46895 -8.60395 69.066
lradius 45.8401
lwrist 13.6338
lhand -22.8483 45.9057
lfingers 7.12502
lthumb 3.58955 435.855
rfemur -8.33063 -5.83314 26.345
rtibia 41.1819
rfoot -26.9556 -18.5583
rtoes -23.4687
lfemur -47.1777 6.43627 -12.6905
ltibia 51.5815
lfoot -17.6636 10.0638
ltoes -7.68162
900
root -2.04355 16.3717 -7.48787 187.407 135.603 535.452
lowerback -2.23152 2.2658 2.82658
upperback -1.23002 2.97409 0.310055
thorax 0.115295 1.47997 -1.19249
lowerneck -9.04198 3.65126 3.90228
upperneck 24.343 6.6982 -7.80091
head 9.54853 2.79655 -2.60581
rclavicle 2.86498e-014 -7.95139e-016
rhumerus -29.8882 26.1843 -106.314
rradius 108.147
rwrist 10.4068
rhand -65.5174 -10.5111
rfingers 7.12502
rthumb -37.3869 -36.4746
lclavicle 2.86498e-014 -7.95139e-016
lhumerus 1.09927 -11.5762 69.7394
lradius 48.3185
lwrist 14.5794
lhand -22.7484 45.6217
lfingers 7.12502
lthumb 3.6861 435.57
rfemur -7.51889 -5.8975 26.9985
rtibia 40.2939
rfoot -26.9342 -18.9764
rtoes -23.655
lfemur -47.3976 7.41039 -13.4633
ltibia 53.2633
lfoot -18.1093 13.1294
ltoes -2.32273
901
root -2.00466 16.3485 -7.43245 187.345 134.748 535.65
lowerback -2.90715 2.69781 2.50097
upperback -1.03676 3.53145 0.290361
thorax 0.696069 1.76753 -0.974941
lowerneck -9.44174 3.23727 3.37812
upperneck 24.5413 6.09762 -7.2817
head 9.62013 2.514 -2.39948
rclavicle 5.96665e-014 -1.54555e-014
rhumerus -27.8109 24.1193 -104.482
rradius 108.456
rwrist 7.23176
rhand -64.1533 -8.87799
rfingers 7.12502
rthumb -36.0962 -35.1708
lclavicle 5.96665e-014 -1.54555e-014
lhumerus -1.69365 -15.0081 70.7083
lradius 51.1634
lwrist 16.9685
lhand -24.7028 46.7424
lfingers 7.12502
lthumb 1.7986 436.715
rfemur -6.33925 -5.72614 27.0986
rtibia 39.123
rfoot -26.9982 -19.417
rtoes -23.7081
lfemur -47.1021 8.32701 -14.5382
ltibia 54.2692
lfoot -18.4034 15.4028
ltoes 1.5487
902
root -1.96342 16.3378 -7.38735 187.49 133.938 535.808
lowerback -3.49474 3.05815 2.20981
upperback -1.00075 4.00405 0.228422
thorax 1.06269 2.00739 -0.82216
lowerneck -9.71895 2.92737 3.17728
upperneck 24.6689 5.67333 -7.12438
head 9.68092 2.3103 -2.35627
rclavicle 4.86712e-014 -2.39784e-015
rhumerus -25.847 21.9417 -102.696
rradius 108.793
rwrist 4.27214
rhand -62.4522 -10.8648
rfingers 7.12502
rthumb -34.4831 -37.54
lclavicle 4.86712e-014 -2.39784e-015
lhumerus -4.6292 -18.2179 72.0758
lradius 53.6227
lwrist 18.5922
lhand -24.9287 46.5436
lfingers 7.12502
lthumb 1.58046 436.518
rfemur -5.65797 -5.43602 27.2883
rtibia 38.3097
rfoot -27.1422 -19.8831
rtoes -23.0221
lfemur -46.9881 9.16349 -15.4167
ltibia 54.9812
lfoot -18.5813 16.6286
ltoes 3.69548
